<svg id="Layer_1_1_" enable-background="new 0 0 64 64" height="512" viewBox="0 0 64 64" width="512" xmlns="http://www.w3.org/2000/svg"><g><path d="m3 12v5c0 1.105.895 2 2 2h4.658c8.866 0 17.703-1.006 26.342-3v-6" fill="#e2e7f6"/><path d="m4 15c0 1.105.895 2 2 2h4.658c8.525 0 17.021-.94 25.342-2.784v-4.216l-32 1.939z" fill="#c8cded"/><path d="m50 10-6.123-1.361c-1.912-.425-3.865-.639-5.824-.639-1.367 0-2.731.104-4.082.312l-.011.002c-7.296 1.122-14.667 1.686-22.049 1.686h-9.911v3h11.909c7.379 0 14.743-.664 22.003-1.984l.088-.016v6l1.632-.544c.817-.272 1.368-1.037 1.368-1.898v-3.558c2.66 0 5.314.263 7.922.784l1.078.216h1" fill="#787faa"/><g><path d="m56.395 12h-2.395v-2h2.395c1.922 0 3.707-.955 4.773-2.555l1.664 1.109c-1.438 2.158-3.845 3.446-6.437 3.446z" fill="#787faa"/></g><path d="m52.482 7c1.391 0 2.518 1.127 2.518 2.518 0 .977-.205 1.943-.602 2.836l-1.722 3.875c-3.761 8.463-8.808 16.294-14.961 23.216-4.463 5.021-9.474 9.525-14.94 13.429l-4.59 3.279c-.771.551-1.694.847-2.641.847-2.51 0-4.544-2.034-4.544-4.544v-.288c0-1.371.619-2.669 1.685-3.532l9.049-7.325c6.827-5.527 13.08-11.727 18.663-18.507 3.728-4.526 7.036-9.383 9.883-14.508.445-.8 1.287-1.296 2.202-1.296z" fill="#f6b940"/><path d="m53.531 7.235c-.32-.147-.673-.235-1.049-.235-.915 0-1.757.496-2.201 1.295-2.848 5.126-6.156 9.982-9.883 14.508-5.584 6.78-11.836 12.981-18.663 18.507l-9.049 7.325c-1.067.864-1.686 2.162-1.686 3.533v.288c0 .519.105 1.009.265 1.473 17.038-12.587 31.407-28.459 42.266-46.694z" fill="#fad85d"/><g><path d="m51 10h2v2h-2z" fill="#787faa"/></g><circle cx="16" cy="52" fill="#787faa" r="2"/><path d="m39 8.153v-.127c-.316-.011-.631-.026-.947-.026-1.367 0-2.731.104-4.082.312l-.011.002c-7.296 1.122-14.667 1.686-22.049 1.686h-9.911v1h16.773c5.475 0 10.941-.452 16.342-1.353l3.049-.508c.483-.08.836-.497.836-.986z" fill="#c8cded"/></g></svg>