<svg id="Capa_1" enable-background="new 0 0 512 512" height="512" viewBox="0 0 512 512" width="512" xmlns="http://www.w3.org/2000/svg"><g><path d="m359.925 107.067h-299.74c1.526-54.648 57.389-90.985 107.852-70.528 20.757-23.026 50.492-36.454 81.836-36.454 59.671 0 108.402 47.712 110.052 106.982z" fill="#fde55f"/><path d="m359.925 107.067h-149.815v-99.534c71.253-27.637 147.743 24.2 149.815 99.534z" fill="#f7ba57"/><path d="m411.059 92.07c-72.55 0-264.092 0-336.044 0-8.283 0-14.998 6.715-14.998 14.998v223.561c-2.682 14.757-20.544 113.025-23.326 128.333-5.025 27.642 16.226 53.038 44.267 53.038h258.064c28.096 0 49.285-25.451 44.267-53.044-2.462-13.536-11.121-61.147-14.911-81.983h42.681c35.835 0 64.989-29.154 64.989-64.989v-154.925c0-35.835-29.154-64.989-64.989-64.989zm34.994 219.913c0 19.296-15.699 34.994-34.994 34.994h-48.136l-2.956-16.25v-208.662h51.092c19.296 0 34.994 15.699 34.994 34.994z" fill="#f0faff"/><path d="m411.057 92.07h-200.947v419.93h128.909c28.095 0 49.292-25.456 44.273-53.041-2.46-13.538-11.128-61.15-14.918-81.986h42.683c35.834 0 64.989-29.155 64.989-64.989v-154.925c0-35.834-29.155-64.989-64.989-64.989zm34.994 219.913c0 19.297-15.697 34.994-34.994 34.994h-48.132l-2.96-16.247v-208.665h51.092c19.297 0 34.994 15.697 34.994 34.994z" fill="#cee6f4"/><path d="m94.588 407.017c-9.357 0-16.429-8.474-14.756-17.68l9.696-53.346c.915-5.028.315 8.41.484-243.922h239.96c.169 252.456-.432 238.99.484 244.025l9.683 53.242c1.674 9.206-5.398 17.681-14.755 17.681z" fill="#f7ba57"/><path d="m325.381 407.017h-115.271v-314.947h119.86c0 256.901-.257 239.929.49 244.03l9.678 53.241c1.68 9.198-5.399 17.676-14.757 17.676z" fill="#f29541"/><path d="m150.052 192.053c-8.283 0-14.998 6.715-14.998 14.998v119.98c0 8.283 6.715 14.997 14.998 14.997s14.998-6.715 14.998-14.997v-119.98c0-8.283-6.715-14.998-14.998-14.998z" fill="#fde55f"/><path d="m210.106 192.053c-8.283 0-14.998 6.715-14.998 14.998v119.98c0 8.283 6.715 14.997 14.998 14.997s14.998-6.715 14.998-14.997v-119.98c0-8.283-6.715-14.998-14.998-14.998z" fill="#fde55f"/><path d="m225.108 207.051v119.98c0 8.279-6.719 14.997-14.998 14.997v-149.975c8.279 0 14.998 6.719 14.998 14.998z" fill="#f7ba57"/><path d="m270.161 192.053c-8.283 0-14.998 6.715-14.998 14.998v119.98c0 8.283 6.715 14.997 14.998 14.997s14.997-6.715 14.997-14.997v-119.98c0-8.283-6.714-14.998-14.997-14.998z" fill="#f7ba57"/><path d="m195.109 91.07c-8.283 0-14.998 6.715-14.998 14.998v29.242c0 8.234-6.314 15.35-14.539 15.734-8.747.408-15.994-6.59-15.994-15.25v-29.726c0-8.283-6.715-14.998-14.998-14.998z" fill="#fde55f"/></g></svg>