<svg id="Capa_1" enable-background="new 0 0 512 512" height="512" viewBox="0 0 512 512" width="512" xmlns="http://www.w3.org/2000/svg"><g><path d="m346 406v15c0 33.091-26.909 61-60 61s-60-27.909-60-61v-165h-15-15v165c0 18.32 5.563 36.338 15 50.568 16.128 24.324 43.691 40.432 75 40.432 49.629 0 90-41.371 90-91v-15z" fill="#47568c"/><path d="m286 512c49.629 0 90-41.371 90-91v-15h-30v15c0 33.091-26.909 61-60 61s-60-27.909-60-61v-165h-15v215.568c16.128 24.324 43.691 40.432 75 40.432z" fill="#3a4673"/><path d="m301 0h-45v30h45c8.276 0 15 6.724 15 15v91c0 57.891-47.109 105-105 105s-105-47.109-105-105v-91c0-8.276 6.724-15 15-15h45v-30h-45c-24.814 0-45 20.186-45 45v91c0 74.443 60.557 135 135 135s135-60.557 135-135v-91c0-24.814-20.186-45-45-45z" fill="#edf5ff"/><path d="m346 136v-91c0-24.814-20.186-45-45-45h-45v30h45c8.276 0 15 6.724 15 15v91c0 57.891-47.109 105-105 105v30c74.443 0 135-60.557 135-135z" fill="#d5e8fe"/><path d="m361 421c-41.353 0-75-33.647-75-75s33.647-75 75-75 75 33.647 75 75-33.647 75-75 75z" fill="#d5e8fe"/><circle cx="361" cy="346" fill="#5dacff" r="45"/><path d="m346 331h30v30h-30z" fill="#d5e8fe"/></g></svg>