<svg id="Capa_1" enable-background="new 0 0 512 512" height="512" viewBox="0 0 512 512" width="512" xmlns="http://www.w3.org/2000/svg"><g><g><path d="m438.108 433.562-17.585 12.745h-59.489l-14.744-12.745v-223.608h91.818z" fill="#4a80aa"/></g><g><path d="m399.292 209.954v205.156c0 5.504-4.462 9.965-9.965 9.965h-60.621l32.329 21.231h59.489v-236.352z" fill="#407093"/></g><g><path d="m167.011 436-17.584 10.307h-60.98l-13.253-10.307v-226.046h91.817z" fill="#4a80aa"/></g><g><path d="m128.196 209.954v205.156c0 5.504-4.462 9.965-9.965 9.965h-60.622l30.838 21.231h60.979v-236.352z" fill="#407093"/></g><g><path d="m361.034 446.307h-69.242l-34.292-10.588-36.797 10.588h-71.235v-109.024l7.063-21.021-7.063-21.021v-219.548c0-5.523 4.477-10 10-10h191.566c5.523 0 10 4.477 10 10v219.548l-6.034 21.021 6.034 21.021z" fill="#e7ecf6"/></g><g><path d="m88.447 446.307h-78.447c-5.523 0-10-4.477-10-10v-87.804l7-20.372-7-21.67v-25.848l7-21.021-7-21.021v-72.344c0-5.523 4.477-10 10-10h68.447c5.523 0 10 4.477 10 10z" fill="#e7ecf6"/></g><g><path d="m502 446.307h-81.437v-280.08c0-5.523 4.477-10 10-10h71.437c5.523 0 10 4.477 10 10v72.344l-8.269 21.021 8.269 21.021v25.848l-8.269 21.67 8.269 20.372v87.804c0 5.523-4.477 10-10 10z" fill="#e7ecf6"/></g><g><path d="m351.068 65.693h-36.156c5.504 0 9.965 4.462 9.965 9.965v370.649h36.156v-109.024l-6.033-21.021 6.034-21.021v-219.583c0-5.504-4.462-9.965-9.966-9.965z" fill="#d8e2f1"/></g><g><path d="m78.482 156.227h-36.156c5.504 0 9.965 4.462 9.965 9.965v280.115h36.156v-280.115c0-5.503-4.461-9.965-9.965-9.965z" fill="#d8e2f1"/></g><g><path d="m502.034 156.227h-36.156c5.504 0 9.965 4.462 9.965 9.965v270.149c0 5.504-4.462 9.965-9.965 9.965h36.156c5.504 0 9.965-4.462 9.965-9.965v-87.839l-8.269-20.372 8.269-21.67v-25.848l-8.269-21.021 8.27-21.02v-72.379c0-5.503-4.462-9.965-9.966-9.965z" fill="#d8e2f1"/></g><g><circle cx="256.247" cy="182.224" fill="#dd636e" r="75.344"/></g><g><path d="m299.882 120.82c8.767 12.315 13.941 27.366 13.941 43.635 0 41.611-33.733 75.344-75.344 75.344-16.268 0-31.32-5.173-43.635-13.94 13.657 19.184 36.06 31.709 61.403 31.709 41.611 0 75.344-33.733 75.344-75.344 0-25.343-12.525-47.746-31.709-61.404z" fill="#da4a54"/></g><g><path d="m294.125 166.706h-21.429c-.514 0-.93-.417-.93-.93v-21.429c0-1.542-1.25-2.791-2.791-2.791h-25.452c-1.542 0-2.791 1.25-2.791 2.791v21.429c0 .514-.417.93-.93.93h-21.432c-1.542 0-2.791 1.25-2.791 2.791v25.452c0 1.542 1.25 2.791 2.791 2.791h21.429c.514 0 .93.417.93.93v21.429c0 1.542 1.25 2.791 2.791 2.791h25.452c1.542 0 2.791-1.25 2.791-2.791v-21.429c0-.514.417-.93.93-.93h21.429c1.542 0 2.791-1.25 2.791-2.791v-25.452c.003-1.541-1.246-2.791-2.788-2.791z" fill="#e7ecf6"/></g><g><path d="m192.081 337.283h-42.613v-42.042h42.613c2.209 0 4 1.791 4 4v34.042c0 2.209-1.791 4-4 4z" fill="#90d8f9"/></g><g><path d="m361.034 337.283h-42.613c-2.209 0-4-1.791-4-4v-34.042c0-2.209 1.791-4 4-4h42.613z" fill="#90d8f9"/></g><g><path d="m287.792 337.283h-63.089c-2.209 0-4-1.791-4-4v-34.042c0-2.209 1.791-4 4-4h63.089c2.209 0 4 1.791 4 4v34.042c0 2.209-1.791 4-4 4z" fill="#90d8f9"/></g><g><path d="m192.095 295.241h-11.736v42.042h11.736c2.202 0 3.986-1.785 3.986-3.986v-34.069c0-2.202-1.785-3.987-3.986-3.987z" fill="#75cef9"/></g><g><path d="m345.312 295.241h15.722v42.042h-15.722z" fill="#75cef9"/></g><g><path d="m287.806 295.241h-11.736v42.042h11.736c2.202 0 3.986-1.785 3.986-3.986v-34.069c0-2.202-1.785-3.987-3.986-3.987z" fill="#75cef9"/></g><g><path d="m291.792 446.307h-71.089v-65.561c0-6.078 4.927-11.006 11.006-11.006h49.077c6.078 0 11.006 4.927 11.006 11.006z" fill="#90d8f9"/></g><g><path d="m280.824 369.741h-19.432c6.057 0 10.968 4.91 10.968 10.968v65.599h19.432v-65.599c0-6.058-4.911-10.968-10.968-10.968z" fill="#75cef9"/></g><g><path d="m512 280.613h-52.519c-2.209 0-4-1.791-4-4v-34.042c0-2.209 1.791-4 4-4h52.519z" fill="#90d8f9"/></g><g><path d="m495.462 238.571h16.538v42.042h-16.538z" fill="#75cef9"/></g><g><path d="m512 348.503h-52.519c-2.209 0-4-1.791-4-4v-34.042c0-2.209 1.791-4 4-4h52.519z" fill="#90d8f9"/></g><g><path d="m0 306.461h52.519c2.209 0 4 1.791 4 4v34.042c0 2.209-1.791 4-4 4h-52.519z" fill="#90d8f9"/></g><g><path d="m0 238.571h52.519c2.209 0 4 1.791 4 4v34.042c0 2.209-1.791 4-4 4h-52.519z" fill="#90d8f9"/></g><g><path d="m52.533 306.461h-11.834v42.042h11.834c2.201 0 3.986-1.785 3.986-3.986v-34.069c0-2.203-1.785-3.987-3.986-3.987z" fill="#75cef9"/></g><g><path d="m52.533 238.571h-11.834v42.042h11.834c2.201 0 3.986-1.785 3.986-3.986v-34.07c0-2.202-1.785-3.986-3.986-3.986z" fill="#75cef9"/></g><g><path d="m495.462 306.461h16.538v42.042h-16.538z" fill="#75cef9"/></g></g></svg>